<?xml version="1.0" encoding="UTF-8" standalone="no"?>
<svg
   height="21"
   viewBox="0 -960 840 840"
   width="21"
   version="1.1"
   id="svg4"
   sodipodi:docname="faviconLight.svg"
   xml:space="preserve"
   inkscape:version="1.2.2 (b0a8486541, 2022-12-01)"
   xmlns:inkscape="http://www.inkscape.org/namespaces/inkscape"
   xmlns:sodipodi="http://sodipodi.sourceforge.net/DTD/sodipodi-0.dtd"
   xmlns:xlink="http://www.w3.org/1999/xlink"
   xmlns="http://www.w3.org/2000/svg"
   xmlns:svg="http://www.w3.org/2000/svg"><defs
     id="defs8"><inkscape:path-effect
       effect="powerclip"
       id="path-effect12888"
       is_visible="true"
       lpeversion="1"
       inverse="true"
       flatten="false"
       hide_clip="false"
       message="Use fill-rule evenodd on &lt;b&gt;fill and stroke&lt;/b&gt; dialog if no flatten result after convert clip to paths." /><clipPath
       clipPathUnits="userSpaceOnUse"
       id="clipPath11314"><rect
         style="fill:#d35f5f;stroke-width:160.351"
         id="rect11316"
         width="3047.51"
         height="2111.0264"
         x="-48.149292"
         y="1988.0616" /></clipPath><linearGradient
       inkscape:collect="always"
       id="linearGradient18394"><stop
         style="stop-color:#9f9f9f;stop-opacity:1;"
         offset="0"
         id="stop18390" /><stop
         style="stop-color:#c2c2c2;stop-opacity:1;"
         offset="1"
         id="stop18392" /></linearGradient><linearGradient
       id="grad1_0"
       x1="0%"
       y1="0%"
       x2="100%"
       y2="100%"><stop
         offset="30%"
         stop-color="#813d9c"
         stop-opacity="1"
         id="stop24896" /><stop
         offset="70%"
         stop-color="#813d9c"
         stop-opacity="1"
         id="stop24898" /></linearGradient><linearGradient
       inkscape:collect="always"
       xlink:href="#linearGradient18394"
       id="linearGradient18396"
       x1="127.83051"
       y1="3977.8901"
       x2="4096"
       y2="9.7206497"
       gradientUnits="userSpaceOnUse" /><linearGradient
       id="grad1_1"
       x1="0%"
       y1="0%"
       x2="100%"
       y2="100%"><stop
         offset="30%"
         stop-color="#813d9c"
         stop-opacity="1"
         id="stop24903" /><stop
         offset="70%"
         stop-color="#515cc0"
         stop-opacity="1"
         id="stop24905" /></linearGradient><linearGradient
       id="grad1_2"
       x1="0%"
       y1="0%"
       x2="100%"
       y2="100%"><stop
         offset="30%"
         stop-color="#0076d6"
         stop-opacity="1"
         id="stop24910" /><stop
         offset="70%"
         stop-color="#515cc0"
         stop-opacity="1"
         id="stop24912" /></linearGradient><linearGradient
       id="grad1_3"
       x1="0%"
       y1="0%"
       x2="100%"
       y2="100%"><stop
         offset="30%"
         stop-color="#0076d6"
         stop-opacity="1"
         id="stop24917" /><stop
         offset="70%"
         stop-color="#008bdb"
         stop-opacity="1"
         id="stop24919" /></linearGradient><linearGradient
       id="grad1_4"
       x1="0%"
       y1="0%"
       x2="100%"
       y2="100%"><stop
         offset="30%"
         stop-color="#009dd0"
         stop-opacity="1"
         id="stop24924" /><stop
         offset="70%"
         stop-color="#008bdb"
         stop-opacity="1"
         id="stop24926" /></linearGradient><linearGradient
       id="grad1_5"
       x1="0%"
       y1="0%"
       x2="100%"
       y2="100%"><stop
         offset="30%"
         stop-color="#009dd0"
         stop-opacity="1"
         id="stop24931" /><stop
         offset="70%"
         stop-color="#00acba"
         stop-opacity="1"
         id="stop24933" /></linearGradient><linearGradient
       id="grad1_6"
       x1="0%"
       y1="0%"
       x2="100%"
       y2="100%"><stop
         offset="30%"
         stop-color="#00b89c"
         stop-opacity="1"
         id="stop24938" /><stop
         offset="70%"
         stop-color="#00acba"
         stop-opacity="1"
         id="stop24940" /></linearGradient><linearGradient
       id="grad1_7"
       x1="0%"
       y1="0%"
       x2="100%"
       y2="100%"><stop
         offset="30%"
         stop-color="#00b89c"
         stop-opacity="1"
         id="stop24945" /><stop
         offset="70%"
         stop-color="#2ec27e"
         stop-opacity="1"
         id="stop24947" /></linearGradient><linearGradient
       id="grad2_1"
       x1="0%"
       y1="0%"
       x2="100%"
       y2="100%"><stop
         offset="30%"
         stop-color="#515cc0"
         stop-opacity="1"
         id="stop24959" /><stop
         offset="70%"
         stop-color="#813d9c"
         stop-opacity="1"
         id="stop24961" /></linearGradient><linearGradient
       id="grad2_2"
       x1="0%"
       y1="0%"
       x2="100%"
       y2="100%"><stop
         offset="30%"
         stop-color="#515cc0"
         stop-opacity="1"
         id="stop24966" /><stop
         offset="70%"
         stop-color="#0076d6"
         stop-opacity="1"
         id="stop24968" /></linearGradient><linearGradient
       id="grad2_3"
       x1="0%"
       y1="0%"
       x2="100%"
       y2="100%"><stop
         offset="30%"
         stop-color="#008bdb"
         stop-opacity="1"
         id="stop24973" /><stop
         offset="70%"
         stop-color="#0076d6"
         stop-opacity="1"
         id="stop24975" /></linearGradient><linearGradient
       id="grad2_4"
       x1="0%"
       y1="0%"
       x2="100%"
       y2="100%"><stop
         offset="30%"
         stop-color="#008bdb"
         stop-opacity="1"
         id="stop24980" /><stop
         offset="70%"
         stop-color="#009dd0"
         stop-opacity="1"
         id="stop24982" /></linearGradient><linearGradient
       id="grad2_5"
       x1="0%"
       y1="0%"
       x2="100%"
       y2="100%"><stop
         offset="30%"
         stop-color="#00acba"
         stop-opacity="1"
         id="stop24987" /><stop
         offset="70%"
         stop-color="#009dd0"
         stop-opacity="1"
         id="stop24989" /></linearGradient><linearGradient
       id="grad2_6"
       x1="0%"
       y1="0%"
       x2="100%"
       y2="100%"><stop
         offset="30%"
         stop-color="#00acba"
         stop-opacity="1"
         id="stop24994" /><stop
         offset="70%"
         stop-color="#00b89c"
         stop-opacity="1"
         id="stop24996" /></linearGradient><linearGradient
       id="grad2_7"
       x1="0%"
       y1="0%"
       x2="100%"
       y2="100%"><stop
         offset="30%"
         stop-color="#2ec27e"
         stop-opacity="1"
         id="stop25001" /><stop
         offset="70%"
         stop-color="#00b89c"
         stop-opacity="1"
         id="stop25003" /></linearGradient><linearGradient
       inkscape:collect="always"
       xlink:href="#linearGradient18394"
       id="linearGradient731"
       gradientUnits="userSpaceOnUse"
       x1="127.83051"
       y1="3977.8901"
       x2="4096"
       y2="9.7206497" /><clipPath
       clipPathUnits="userSpaceOnUse"
       id="clipPath847"><rect
         style="fill:#ffff00;stroke-width:71.3257"
         id="rect849"
         width="1256.2043"
         height="867.60242"
         x="421.01172"
         y="2730.1565" /></clipPath></defs><sodipodi:namedview
     id="namedview6"
     pagecolor="#ffffff"
     bordercolor="#000000"
     borderopacity="0.25"
     inkscape:showpageshadow="2"
     inkscape:pageopacity="0.0"
     inkscape:pagecheckerboard="0"
     inkscape:deskcolor="#d1d1d1"
     showgrid="false"
     inkscape:zoom="15.129139"
     inkscape:cx="43.954915"
     inkscape:cy="16.987087"
     inkscape:window-width="1920"
     inkscape:window-height="1011"
     inkscape:window-x="0"
     inkscape:window-y="0"
     inkscape:window-maximized="1"
     inkscape:current-layer="svg4" /><g
     id="g729"
     transform="matrix(0.56080751,0,0,0.56080751,-173.52864,-2377.0002)"
     clip-path="url(#clipPath847)"><g
       id="layer1"
       inkscape:label="shapes"
       style="display:inline"><rect
         x="0"
         y="0"
         width="4096"
         height="4096"
         fill="#2ec27e"
         id="rect24894"
         style="font-variation-settings:normal;vector-effect:none;fill:#241f31;fill-opacity:1;stroke-width:1;stroke-linecap:butt;stroke-linejoin:miter;stroke-miterlimit:4;stroke-dasharray:none;stroke-dashoffset:0;stroke-opacity:1;-inkscape-stroke:none;stop-color:#000000" /><path
         d="m 4096,2896.3 c -244.6,-26.2 -489.2,-52.4 -749.6,-98.7 -260.5,-46.3 -536.8,-112.7 -693.4,-298.3 -156.6,-185.5 -193.3,-490.1 -396.2,-660.1 -202.9,-170 -571.8,-205.4 -666.2,-392.7 -94.4,-187.3 85.8,-526.6 66.4,-793 C 1637.7,387.1 1418.7,193.6 1199.7,0 H 4096 Z"
         fill="#00be8d"
         id="path25008"
         style="font-variation-settings:normal;vector-effect:none;fill:#30223b;fill-opacity:1;stroke-width:1;stroke-linecap:butt;stroke-linejoin:miter;stroke-miterlimit:4;stroke-dasharray:none;stroke-dashoffset:0;stroke-opacity:1;-inkscape-stroke:none;stop-color:#000000" /><path
         d="m 4096,2534.3 c -214,-22.9 -428,-45.9 -655.9,-86.4 -227.9,-40.5 -469.7,-98.6 -606.7,-261 -137,-162.3 -169.2,-428.9 -346.7,-577.6 -177.5,-148.8 -500.4,-179.7 -582.9,-343.6 -82.6,-163.9 75.1,-460.8 58.1,-693.9 C 1944.9,338.7 1753.3,169.4 1561.7,0 H 4096 Z"
         fill="#00b2ab"
         id="path25010"
         style="font-variation-settings:normal;vector-effect:none;fill:#4e254a;fill-opacity:1;stroke-width:1;stroke-linecap:butt;stroke-linejoin:miter;stroke-miterlimit:4;stroke-dasharray:none;stroke-dashoffset:0;stroke-opacity:1;-inkscape-stroke:none;stop-color:#000000" /><path
         d="m 4096,2172.2 c -183.4,-19.6 -366.9,-39.3 -562.2,-74 -195.4,-34.7 -402.6,-84.5 -520,-223.7 -117.5,-139.1 -145,-367.6 -297.2,-495.1 -152.1,-127.5 -428.9,-154 -499.7,-294.5 -70.7,-140.5 64.4,-395 49.9,-594.8 C 2252.2,290.3 2088,145.2 1923.8,0 H 4096 Z"
         fill="#00a5c6"
         id="path25012"
         style="font-variation-settings:normal;vector-effect:none;fill:#70234e;fill-opacity:1;stroke-width:1;stroke-linecap:butt;stroke-linejoin:miter;stroke-miterlimit:4;stroke-dasharray:none;stroke-dashoffset:0;stroke-opacity:1;-inkscape-stroke:none;stop-color:#000000" /><path
         d="m 4096,1810.2 c -152.9,-16.4 -305.7,-32.7 -468.5,-61.7 -162.8,-28.9 -335.5,-70.4 -433.4,-186.4 -97.8,-116 -120.8,-306.4 -247.6,-412.6 C 2819.7,1043.2 2589.1,1021.1 2530.1,904.1 2471.1,787 2583.8,575 2571.6,408.4 2559.5,241.9 2422.7,121 2285.8,0 H 4096 Z"
         fill="#0095d8"
         id="path25014"
         style="font-variation-settings:normal;vector-effect:none;fill:#921f48;fill-opacity:1;stroke-width:1;stroke-linecap:butt;stroke-linejoin:miter;stroke-miterlimit:4;stroke-dasharray:none;stroke-dashoffset:0;stroke-opacity:1;-inkscape-stroke:none;stop-color:#000000" /><path
         d="m 4096,1448.15 c -122.3,-13.1 -244.6,-26.2 -374.8,-49.4 -130.2,-23.1 -268.4,-56.4 -346.7,-149.1 -78.3,-92.8 -96.7,-245.1 -198.1,-330.1 -101.4,-85 -285.9,-102.7 -333.1,-196.3 -47.2,-93.7 42.9,-263.3 33.2,-396.5 -9.7,-133.2 -119.2,-230 -228.7,-326.8 H 4096 Z"
         fill="#0081db"
         id="path25016"
         style="font-variation-settings:normal;vector-effect:none;fill:#af2438;fill-opacity:1;stroke-width:1;stroke-linecap:butt;stroke-linejoin:miter;stroke-miterlimit:4;stroke-dasharray:none;stroke-dashoffset:0;stroke-opacity:1;-inkscape-stroke:none;stop-color:#000000" /><path
         d="m 4096,1086.1 c -91.7,-9.8 -183.4,-19.6 -281.1,-37 -97.7,-17.4 -201.3,-42.3 -260,-111.8 -58.7,-69.6 -72.5,-183.9 -148.6,-247.6 -76.1,-63.8 -214.4,-77 -249.8,-147.3 -35.4,-70.2 32.2,-197.4 24.9,-297.3 C 3174.1,145.2 3092,72.6 3009.9,0 H 4096 Z"
         fill="#1569cd"
         id="path25018"
         style="font-variation-settings:normal;vector-effect:none;fill:#c1381d;fill-opacity:1;stroke-width:1;stroke-linecap:butt;stroke-linejoin:miter;stroke-miterlimit:4;stroke-dasharray:none;stroke-dashoffset:0;stroke-opacity:1;-inkscape-stroke:none;stop-color:#000000" /><path
         d="m 4096,724.1 c -61.1,-6.6 -122.3,-13.1 -187.4,-24.7 -65.1,-11.6 -134.2,-28.2 -173.3,-74.6 -39.2,-46.3 -48.4,-122.5 -99.1,-165 -50.7,-42.5 -143,-51.3 -166.6,-98.2 -23.5,-46.8 21.5,-131.6 16.7,-198.2 C 3481.4,96.8 3426.7,48.4 3371.9,0 H 4096 Z"
         fill="#6e4daf"
         id="path25020"
         style="font-variation-settings:normal;vector-effect:none;fill:#c64600;fill-opacity:1;stroke-width:1;stroke-linecap:butt;stroke-linejoin:miter;stroke-miterlimit:4;stroke-dasharray:none;stroke-dashoffset:0;stroke-opacity:1;-inkscape-stroke:none;stop-color:#000000" /><path
         d="m 4096,362 c -30.6,-3.2 -61.1,-6.5 -93.7,-12.3 -32.6,-5.8 -67.1,-14.1 -86.7,-37.3 -19.5,-23.2 -24.1,-61.3 -49.5,-82.5 -25.4,-21.3 -71.5,-25.7 -83.3,-49.1 -11.8,-23.4 10.8,-65.8 8.3,-99.1 C 3788.7,48.4 3761.3,24.2 3734,0 h 362 z"
         fill="#813d9c"
         id="path25022"
         style="fill:#e66100" /><path
         d="m 0,1199.7 c 200.5,189.8 401,379.6 669.3,398.4 268.3,18.9 604.4,-133.2 778.9,-10.4 174.4,122.9 187.2,520.6 312.5,747.6 125.3,227 363,283.3 555.1,423.7 192,140.4 338.3,365.1 427.4,602 89.2,236.8 121.1,485.9 153.1,735 H 0 Z"
         style="fill:#30223b;fill-opacity:1;stroke-width:1px;stroke-opacity:1;stop-color:#000000"
         id="path26767" /><path
         d="m 0,1561.7 c 175.4,166.1 350.9,332.2 585.6,348.7 234.8,16.4 528.9,-116.6 681.5,-9.1 152.7,107.4 163.9,455.5 273.5,654.1 109.6,198.6 317.7,247.8 485.7,370.7 168,122.9 296,319.5 374,526.7 78,207.3 106,425.2 134,643.2 H 0 Z"
         style="fill:#4e254a;fill-opacity:1;stroke-width:1px;stroke-opacity:1;stop-color:#000000"
         id="path26773" /><path
         d="m 0,1561.7 c 175.4,166.1 350.9,332.2 585.6,348.7 234.8,16.4 528.9,-116.6 681.5,-9.1 152.7,107.4 163.9,455.5 273.5,654.1 109.6,198.6 317.7,247.8 485.7,370.7 168,122.9 296,319.5 374,526.7 78,207.3 106,425.2 134,643.2 H 0 Z"
         fill="#00b2ab"
         id="path25028"
         style="font-variation-settings:normal;vector-effect:none;fill:#4e254a;fill-opacity:1;stroke-width:1;stroke-linecap:butt;stroke-linejoin:miter;stroke-miterlimit:4;stroke-dasharray:none;stroke-dashoffset:0;stroke-opacity:1;-inkscape-stroke:none;stop-color:#000000" /><path
         d="m 0,1923.8 c 150.4,142.3 300.8,284.6 502,298.8 201.2,14.1 453.3,-99.9 584.1,-7.8 130.9,92.1 140.5,390.4 234.4,560.7 94,170.2 272.3,212.4 416.3,317.7 144,105.4 253.8,273.9 320.6,451.5 66.9,177.7 90.9,364.5 114.8,551.3 H 0 Z"
         fill="#00a5c6"
         id="path25030"
         style="font-variation-settings:normal;vector-effect:none;fill:#70234e;fill-opacity:1;stroke-width:1;stroke-linecap:butt;stroke-linejoin:miter;stroke-miterlimit:4;stroke-dasharray:none;stroke-dashoffset:0;stroke-opacity:1;-inkscape-stroke:none;stop-color:#000000" /><path
         d="m 0,2172.2 c 122.83471,137.7048 269.09943,249.544 433.42352,263.2854 164.3241,13.6447 370.21925,-96.674 477.04625,-7.5481 106.90873,89.1259 91.31913,225.4038 168.00923,390.2044 76.7716,164.7039 222.3929,205.5412 340.0006,307.4408 117.6076,101.9964 207.2835,265.0552 261.8404,436.9201 54.6387,171.9617 74.2399,352.7296 93.7595,533.4974 H 0 Z"
         style="fill:#af2438;fill-opacity:0.63887;stroke-width:0.91868px;stroke-opacity:1;stop-color:#000000"
         id="path27067"
         sodipodi:nodetypes="ccccccccc" /><path
         d="m 0,2647.8 c 100.3,94.9 200.5,189.8 334.7,199.3 134.1,9.4 302.2,-66.7 389.4,-5.2 87.2,61.4 93.6,260.3 156.2,373.8 62.7,113.5 181.6,141.6 277.6,211.8 96,70.2 169.1,182.5 213.7,301 44.6,118.4 60.6,243 76.6,367.5 H 0 Z"
         style="fill:#af2438;fill-opacity:1;stroke-width:1px;stroke-opacity:1;stop-color:#000000"
         id="path27938" /><path
         d="m 0,3009.9 c 75.2,71.2 150.4,142.3 251,149.4 100.6,7.1 226.6,-50 292.1,-3.9 65.4,46.1 70.2,195.2 117.2,280.3 46.9,85.2 136.1,106.3 208.1,158.9 72,52.7 126.9,136.9 160.3,225.8 33.4,88.8 45.4,182.2 57.4,275.6 H 0 Z"
         style="fill:#c1381d;fill-opacity:1;stroke-width:1px;stroke-opacity:1;stop-color:#000000"
         id="path27946" /><path
         d="m 0,3371.9 c 50.1,47.5 100.3,94.9 167.3,99.6 67.1,4.7 151.1,-33.3 194.7,-2.6 43.7,30.7 46.9,130.2 78.2,186.9 31.3,56.8 90.7,70.8 138.7,105.9 48,35.2 84.6,91.3 106.9,150.5 22.3,59.3 30.3,121.5 38.3,183.8 H 0 Z"
         fill="#6e4daf"
         id="path25038"
         style="font-variation-settings:normal;vector-effect:none;fill:#c64600;fill-opacity:1;stroke-width:1;stroke-linecap:butt;stroke-linejoin:miter;stroke-miterlimit:4;stroke-dasharray:none;stroke-dashoffset:0;stroke-opacity:1;-inkscape-stroke:none;stop-color:#000000" /><path
         d="m 0,3734 c 25.1,23.7 50.1,47.4 83.7,49.8 33.5,2.3 75.5,-16.7 97.3,-1.3 21.8,15.3 23.4,65 39.1,93.4 15.6,28.4 45.4,35.4 69.4,53 24,17.5 42.3,45.6 53.4,75.2 11.1,29.6 15.1,60.8 19.1,91.9 H 0 Z"
         fill="#813d9c"
         id="path25040"
         style="fill:#e66100" /><path
         d="m 0,3371.9 c 50.1,47.5 100.3,94.9 167.3,99.6 67.1,4.7 151.1,-33.3 194.7,-2.6 43.7,30.7 46.9,130.2 78.2,186.9 31.3,56.8 90.7,70.8 138.7,105.9 48,35.2 84.6,91.3 106.9,150.5 22.3,59.3 30.3,121.5 38.3,183.8 H 0 Z"
         style="fill:#c64600;fill-opacity:1;stroke-width:1px;stroke-opacity:1;stop-color:#000000"
         id="path27705" /><path
         d="m 0,3734 c 25.1,23.7 50.1,47.4 83.7,49.8 33.5,2.3 75.5,-16.7 97.3,-1.3 21.8,15.3 23.4,65 39.1,93.4 15.6,28.4 45.4,35.4 69.4,53 24,17.5 42.3,45.6 53.4,75.2 11.1,29.6 15.1,60.8 19.1,91.9 H 0 Z"
         style="fill:#e66100;fill-opacity:1;stroke-width:1px;stroke-opacity:1;stop-color:#000000"
         id="path27719" /></g><g
       id="layer2"
       inkscape:label="colors"
       style="display:inline;opacity:0.692723;mix-blend-mode:overlay;fill:url(#linearGradient18396);fill-opacity:1;stroke:none"><rect
         style="display:inline;fill:url(#linearGradient731);fill-opacity:1;stroke:none;stroke-width:0.851851;-inkscape-stroke:none;stop-color:#000000"
         id="rect12758"
         width="4096"
         height="4096.0498"
         x="5.6843419e-14"
         y="-0.050000001" /></g></g><path
     d="m 400.48856,-415.03836 q -63.67685,-7.89384 -105.51413,-55.51992 -41.83725,-47.62604 -41.83725,-111.82912 0,-34.73284 13.68263,-66.57126 13.68261,-31.83843 38.94287,-55.51989 l 29.99652,29.99653 q -19.99769,17.89266 -30.25966,41.57414 -10.26197,23.68148 -10.26197,50.52048 0,46.3104 29.47028,81.8326 29.47027,35.5222 75.78071,43.41604 z m 42.1004,0 v -42.1004 q 45.78416,-8.42008 75.51756,-43.67916 29.7334,-35.25908 29.7334,-81.56948 0,-52.6255 -36.83784,-89.46335 -36.83784,-36.83785 -89.46332,-36.83785 H 419.96 l 23.1552,23.15522 -29.47028,29.47027 -73.67568,-73.67567 73.67568,-73.6757 29.47028,29.47027 -23.1552,23.15522 h 1.5788 q 70.51816,0 119.45984,48.94171 48.94172,48.9417 48.94172,119.45988 0,63.67684 -41.83728,111.30288 -41.83724,47.62608 -105.51412,56.04616 z"
     id="path12886"
     style="display:block;stroke-width:0.526256" /><path
     d="m 180,-180 v -80 l 40,-40 H 100 Q 67,-300 43.5,-323.5 20,-347 20,-380 v -440 q 0,-33 23.5,-56.5 Q 67,-900 100,-900 h 640 q 33,0 56.5,23.5 23.5,23.5 23.5,56.5 v 440 q 0,33 -23.5,56.5 Q 773,-300 740,-300 H 620 l 40,40 v 80 z M 100,-380 H 740 V -820 H 100 Z m 0,0 v -440 z"
     id="path2" /></svg>
